<mxfile host="app.diagrams.net" modified="2022-05-04T10:49:10.579Z" agent="5.0 (Windows NT 10.0; Win64; x64) AppleWebKit/537.36 (KHTML, like Gecko) Chrome/97.0.4692.99 Safari/537.36" etag="MNf2xugOuLcn672Cen1V" version="17.4.2" type="github">
  <diagram id="upxESWyyqBrK6R5J3ZWn" name="Page-1">
    <mxGraphModel dx="942" dy="582" grid="1" gridSize="10" guides="1" tooltips="1" connect="1" arrows="1" fold="1" page="1" pageScale="1" pageWidth="1500" pageHeight="1169" math="0" shadow="0">
      <root>
        <mxCell id="0" />
        <mxCell id="1" parent="0" />
        <mxCell id="bcXny3qcxB3zfZZRFjw4-1" value="&lt;font style=&quot;font-size: 14px&quot;&gt;精准扶贫电商平台&lt;/font&gt;" style="rounded=1;whiteSpace=wrap;html=1;fillColor=#1ba1e2;strokeColor=#6666FF;fontColor=#ffffff;gradientColor=none;perimeterSpacing=2;strokeWidth=1;" vertex="1" parent="1">
          <mxGeometry x="330" y="220" width="120" height="60" as="geometry" />
        </mxCell>
        <mxCell id="bcXny3qcxB3zfZZRFjw4-2" value="" style="endArrow=none;html=1;rounded=0;fontSize=14;strokeWidth=2;" edge="1" parent="1">
          <mxGeometry width="50" height="50" relative="1" as="geometry">
            <mxPoint x="450" y="249.5" as="sourcePoint" />
            <mxPoint x="510" y="249.5" as="targetPoint" />
          </mxGeometry>
        </mxCell>
      </root>
    </mxGraphModel>
  </diagram>
</mxfile>
